<svg width="20" height="16" viewBox="0 0 20 16" fill="none" xmlns="http://www.w3.org/2000/svg">
<path d="M10.0459 7.60254C10.0459 7.85742 10.125 8.05957 10.292 8.21777L13.9219 11.8213C14.1152 12.0146 14.3262 12.1025 14.5723 12.1025C14.8096 12.1025 15.0381 12.0059 15.2139 11.8213L18.8789 8.21777C19.0547 8.05957 19.1426 7.85742 19.1426 7.60254C19.1426 7.12793 18.7471 6.75 18.2637 6.75C18.0264 6.75 17.833 6.83789 17.666 6.9873L15.6094 9.08789C15.6709 8.6748 15.7061 8.25293 15.7061 7.83105C15.7061 3.48047 12.2256 0 7.86621 0C3.50684 0 0 3.50684 0 7.85742C0 12.2168 3.50684 15.7148 7.86621 15.7148C8.39355 15.7148 8.77148 15.3457 8.77148 14.8184C8.77148 14.3086 8.39355 13.9658 7.86621 13.9658C4.47363 13.9658 1.74902 11.25 1.74902 7.85742C1.74902 4.47363 4.47363 1.74902 7.86621 1.74902C11.2852 1.74902 13.9922 4.44727 13.9922 7.83105C13.9922 8.40234 13.9482 8.92969 13.8691 9.39551L11.4961 6.99609C11.3379 6.83789 11.1445 6.75 10.9072 6.75C10.4238 6.75 10.0459 7.12793 10.0459 7.60254Z" fill="white"/>
</svg>
