<svg width="15" height="14" viewBox="0 0 15 14" fill="none" xmlns="http://www.w3.org/2000/svg">
<path d="M14.5385 6.2746H13.6957C13.3406 3.22256 10.6918 0.772491 7.50133 0.772491C5.73753 0.772491 4.13626 1.54303 3.02861 2.74699C2.73364 3.03594 2.74568 3.42121 2.98647 3.64394C3.23329 3.8727 3.58846 3.8727 3.88945 3.59578C4.7864 2.62659 6.07464 2.01859 7.50133 2.01859C10.0417 2.01859 12.0945 3.87872 12.4376 6.2746H11.5165C11.053 6.2746 10.9266 6.61773 11.1975 6.99096L12.6362 9.02566C12.859 9.32665 13.1961 9.33267 13.4128 9.02566L14.8575 6.99698C15.1284 6.61773 15.008 6.2746 14.5385 6.2746ZM0.464173 7.72538H1.31297C1.66814 10.7774 4.31685 13.2275 7.50133 13.2275C9.27718 13.2275 10.8784 12.4509 11.9861 11.247C12.275 10.958 12.263 10.5727 12.0222 10.35C11.7754 10.1213 11.4263 10.1213 11.1192 10.4042C10.2343 11.3734 8.94609 11.9814 7.50133 11.9814C4.96699 11.9814 2.91424 10.1213 2.57111 7.72538H3.48612C3.94362 7.72538 4.07606 7.38225 3.80517 7.00902L2.36041 4.97432C2.1437 4.67333 1.80659 4.66731 1.58988 4.97432L0.145123 7.003C-0.131789 7.38225 -0.0053727 7.72538 0.464173 7.72538Z" fill="white"/>
</svg>
