<svg width="20" height="18" viewBox="0 0 20 18" fill="none" xmlns="http://www.w3.org/2000/svg">
<path d="M0.384766 16.2568C0.384766 16.7139 0.683594 17.0127 1.14062 17.0127H18.7451C19.2197 17.0127 19.6152 16.6436 19.6152 16.1514C19.6152 15.6592 19.2197 15.29 18.7451 15.29H2.35352C2.16895 15.29 2.10742 15.2285 2.10742 15.0439V10.2627L5.83398 8.10059C6.13281 8.38184 6.52832 8.55762 6.97656 8.55762C7.35449 8.55762 7.71484 8.42578 7.99609 8.20605L9.64844 9.6123C9.58691 9.78809 9.55176 9.98145 9.55176 10.1748C9.55176 11.1064 10.2988 11.8535 11.2217 11.8535C12.1445 11.8535 12.9004 11.1064 12.9004 10.1748C12.9004 10.1045 12.8916 10.0254 12.8828 9.95508L16.9082 7.54688C17.1719 7.73145 17.4971 7.83691 17.8398 7.83691C18.7627 7.83691 19.5186 7.08105 19.5186 6.1582C19.5186 5.23535 18.7627 4.47949 17.8398 4.47949C16.917 4.47949 16.1611 5.23535 16.1611 6.1582C16.1611 6.27246 16.1787 6.38672 16.1963 6.49219L12.25 8.85645C11.9688 8.63672 11.6084 8.50488 11.2217 8.50488C10.9492 8.50488 10.6855 8.56641 10.4482 8.68945L8.62891 7.14258C8.6377 7.05469 8.64648 6.9668 8.64648 6.87891C8.64648 5.95605 7.89941 5.2002 6.97656 5.2002C6.04492 5.2002 5.29785 5.95605 5.29785 6.87891C5.29785 6.90527 5.29785 6.93164 5.29785 6.95801L2.10742 8.80371V1.22754C2.10742 0.744141 1.73828 0.357422 1.24609 0.357422C0.753906 0.357422 0.384766 0.744141 0.384766 1.22754V16.2568Z" fill="white"/>
</svg>
