<svg width="6" height="10" viewBox="0 0 6 10" fill="none" xmlns="http://www.w3.org/2000/svg">
<path d="M6.00001 5.20001C5.99494 5.02245 5.92898 4.87025 5.79201 4.73327L1.84499 0.872504C1.72831 0.760892 1.59133 0.700012 1.42391 0.700012C1.084 0.700012 0.82019 0.963823 0.82019 1.30373C0.82019 1.46608 0.886143 1.61828 1.00283 1.73496L4.55412 5.20001L1.00283 8.66506C0.886143 8.78175 0.82019 8.92887 0.82019 9.09629C0.82019 9.4362 1.084 9.70001 1.42391 9.70001C1.58626 9.70001 1.72831 9.63913 1.84499 9.52752L5.79201 5.66168C5.93406 5.52978 6.00001 5.37758 6.00001 5.20001Z" fill="white" fill-opacity="0.48"/>
</svg>
