<svg width="23" height="22" viewBox="0 0 23 22" fill="none" xmlns="http://www.w3.org/2000/svg">
<path d="M1.25891 8.99571C0.491977 8.99571 0.297817 9.57819 0.71526 10.151L3.08401 13.4323C3.41408 13.8885 3.9189 13.8788 4.23926 13.4323L6.60801 10.1413C7.01575 9.5879 6.8313 8.99571 6.07407 8.99571H4.66641C5.54984 5.51054 8.68552 2.95734 12.4619 2.95734C16.9179 2.95734 20.4904 6.52988 20.4904 10.9858C20.4904 15.4418 16.9179 19.0338 12.4619 19.0241C9.8699 19.0144 7.59823 17.8009 6.14203 15.8884C5.744 15.4321 5.16152 15.2865 4.68583 15.636C4.23926 15.9563 4.15189 16.5874 4.58875 17.1213C6.37502 19.4512 9.32625 21.0239 12.4619 21.0239C17.9567 21.0239 22.5 16.4806 22.5 10.9858C22.5 5.49113 17.9567 0.947784 12.4619 0.947784C7.63706 0.947784 3.54999 4.43295 2.61803 8.99571H1.25891ZM12.1027 5.36492C11.627 5.36492 11.2484 5.74353 11.2484 6.20952V11.4712C11.2484 11.7042 11.3261 11.9178 11.4911 12.1411L13.8016 15.1894C14.1511 15.6457 14.6559 15.7234 15.0734 15.4224C15.4714 15.1409 15.5102 14.6263 15.1996 14.2089L12.9473 11.18V6.20952C12.9473 5.74353 12.5687 5.36492 12.1027 5.36492Z" fill="white"/>
</svg>
