<svg width="12" height="11" viewBox="0 0 12 11" fill="none" xmlns="http://www.w3.org/2000/svg">
<path d="M5.99734 11C9.01184 11 11.5 8.51064 11.5 5.5C11.5 2.48936 9.00653 0 5.99203 0C2.98284 0 0.5 2.48936 0.5 5.5C0.5 8.51064 2.98816 11 5.99734 11ZM5.99734 9.90425C3.55703 9.90425 1.60585 7.94149 1.60585 5.5C1.60585 3.05851 3.55703 1.10106 5.99203 1.10106C8.43233 1.10106 10.3942 3.05851 10.3995 5.5C10.4048 7.94149 8.43765 9.90425 5.99734 9.90425ZM3.31779 6.17021H5.99203C6.23659 6.17021 6.42267 5.98404 6.42267 5.74468V2.26596C6.42267 2.0266 6.23659 1.84043 5.99203 1.84043C5.7581 1.84043 5.57202 2.0266 5.57202 2.26596V5.31915H3.31779C3.07854 5.31915 2.89246 5.50532 2.89246 5.74468C2.89246 5.98404 3.07854 6.17021 3.31779 6.17021Z" fill="white" fill-opacity="0.45"/>
</svg>
