<svg width="24" height="16" viewBox="0 0 24 16" fill="none" xmlns="http://www.w3.org/2000/svg">
<path d="M12 15.2041C19.1367 15.2041 23.9531 9.44727 23.9531 7.66309C23.9531 5.8877 19.1279 0.130859 12 0.130859C4.96875 0.130859 0.046875 5.8877 0.046875 7.66309C0.046875 9.44727 4.95996 15.2041 12 15.2041ZM12.0088 12.4619C9.32812 12.4619 7.19238 10.2734 7.18359 7.67188C7.1748 4.98242 9.32812 2.87305 12.0088 2.87305C14.6719 2.87305 16.8252 4.99121 16.8252 7.67188C16.8252 10.2734 14.6719 12.4619 12.0088 12.4619ZM12.0088 9.45605C12.9932 9.45605 13.8105 8.64746 13.8105 7.67188C13.8105 6.6875 12.9932 5.87012 12.0088 5.87012C11.0068 5.87012 10.1982 6.6875 10.1982 7.67188C10.1982 8.64746 11.0068 9.45605 12.0088 9.45605Z" fill="white"/>
</svg>
