<svg width="27" height="27" viewBox="0 0 27 27" fill="none" xmlns="http://www.w3.org/2000/svg">
<path d="M12.24 27H14.76C15.7903 27 16.5972 26.3545 16.8455 25.3614L17.3421 23.189L17.6648 23.0648L19.5641 24.2442C20.4331 24.7904 21.4634 24.6414 22.1959 23.909L23.9338 22.171C24.6786 21.4262 24.8028 20.4083 24.2566 19.5517L23.0772 17.6524L23.2014 17.3545L25.3738 16.8455C26.3545 16.5973 27 15.7904 27 14.76V12.3145C27 11.2842 26.3669 10.4773 25.3738 10.229L23.2138 9.7076L23.0897 9.38484L24.269 7.49794C24.8152 6.64139 24.691 5.62346 23.9462 4.86622L22.2083 3.12829C21.4883 2.39588 20.4579 2.25932 19.589 2.79312L17.6897 3.96001L17.3421 3.83588L16.8455 1.65105C16.5972 0.657945 15.7903 0.0248413 14.76 0.0248413H12.24C11.1972 0.0248413 10.3903 0.657945 10.1545 1.65105L9.65793 3.83588L9.31034 3.96001L7.41103 2.79312C6.52966 2.25932 5.51172 2.39588 4.79172 3.12829L3.04138 4.86622C2.30897 5.62346 2.17241 6.64139 2.71862 7.49794L3.89793 9.38484L3.77379 9.7076L1.62621 10.229C0.633103 10.4773 0 11.2842 0 12.3145V14.76C0 15.7904 0.645517 16.5973 1.62621 16.8455L3.79862 17.3545L3.91034 17.6524L2.73103 19.5517C2.18483 20.4083 2.32138 21.4262 3.05379 22.171L4.80414 23.909C5.52414 24.6414 6.55448 24.7904 7.42345 24.2442L9.32276 23.0648L9.65793 23.189L10.1545 25.3614C10.3903 26.3545 11.1972 27 12.24 27ZM12.5628 24.7159C12.3517 24.7159 12.24 24.629 12.2152 24.4428L11.4703 21.389C10.6883 21.2028 9.93104 20.88 9.32276 20.4952L6.64138 22.1462C6.48 22.2455 6.33103 22.2331 6.18207 22.0842L4.87862 20.7807C4.72966 20.6441 4.72966 20.4952 4.82897 20.3338L6.48 17.6524C6.13241 17.0566 5.80966 16.3117 5.62345 15.5297L2.55724 14.7973C2.37103 14.7724 2.27172 14.6607 2.27172 14.4497V12.6124C2.27172 12.389 2.35862 12.3021 2.55724 12.2524L5.61103 11.5324C5.79724 10.7007 6.15724 9.93105 6.46759 9.37243L4.81655 6.71588C4.71724 6.54208 4.71724 6.39312 4.85379 6.24415L6.16966 4.95312C6.31862 4.81657 6.45517 4.79174 6.64138 4.90346L9.29793 6.52967C9.85655 6.18208 10.6883 5.8345 11.4828 5.63588L12.2152 2.58208C12.24 2.39588 12.3517 2.29657 12.5628 2.29657H14.4372C14.6483 2.29657 14.7476 2.38346 14.7848 2.58208L15.5297 5.64829C16.3366 5.84691 17.069 6.18208 17.6897 6.52967L20.3462 4.90346C20.5324 4.80415 20.669 4.81657 20.8179 4.96553L22.1338 6.25657C22.2828 6.39312 22.2828 6.54208 22.171 6.71588L20.5324 9.37243C20.8303 9.93105 21.2028 10.7007 21.389 11.5324L24.4428 12.2524C24.6414 12.3021 24.7159 12.389 24.7159 12.6124V14.4497C24.7159 14.6607 24.629 14.7724 24.4428 14.7973L21.3766 15.5297C21.1903 16.3117 20.8552 17.069 20.5076 17.6524L22.1586 20.3214C22.2579 20.4952 22.2579 20.6317 22.109 20.7683L20.8055 22.0842C20.6566 22.2331 20.5076 22.2455 20.3462 22.1462L17.6772 20.4952C17.0566 20.88 16.349 21.1904 15.5297 21.389L14.7848 24.4428C14.7476 24.629 14.6483 24.7159 14.4372 24.7159H12.5628ZM13.5062 18.2235C16.0883 18.2235 18.211 16.1007 18.211 13.5062C18.211 10.9366 16.0883 8.81381 13.5062 8.81381C10.9117 8.81381 8.77655 10.9366 8.77655 13.5062C8.77655 16.1007 10.9117 18.2235 13.5062 18.2235ZM13.5062 16.0759C12.091 16.0759 10.9366 14.9214 10.9366 13.5062C10.9366 12.1159 12.1034 10.9614 13.5062 10.9614C14.8841 10.9614 16.0386 12.1159 16.0386 13.5062C16.0386 14.909 14.8841 16.0759 13.5062 16.0759Z" fill="white"/>
</svg>
