<svg width="27" height="26" viewBox="0 0 27 26" fill="none" xmlns="http://www.w3.org/2000/svg">
<path d="M12.2867 26H14.7133C15.7055 26 16.4825 25.3784 16.7216 24.4221L17.1998 22.3301L17.5106 22.2106L19.3395 23.3462C20.1763 23.8722 21.1685 23.7288 21.8738 23.0235L23.5474 21.3499C24.2646 20.6327 24.3841 19.6524 23.8582 18.8276L22.7225 16.9986L22.8421 16.7117L24.934 16.2216C25.8784 15.9825 26.5 15.2055 26.5 14.2134V11.8584C26.5 10.8662 25.8903 10.0892 24.934 9.85013L22.854 9.34806L22.7345 9.03726L23.8701 7.22025C24.3961 6.39542 24.2766 5.41519 23.5593 4.68599L21.8857 3.01243C21.1924 2.30714 20.2002 2.17565 19.3634 2.68967L17.5345 3.81335L17.1998 3.69381L16.7216 1.5899C16.4825 0.633581 15.7055 0.0239258 14.7133 0.0239258H12.2867C11.2825 0.0239258 10.5055 0.633581 10.2784 1.5899L9.80023 3.69381L9.46552 3.81335L7.63655 2.68967C6.78782 2.17565 5.80759 2.30714 5.11425 3.01243L3.42874 4.68599C2.72345 5.41519 2.59195 6.39542 3.11793 7.22025L4.25356 9.03726L4.13402 9.34806L2.06598 9.85013C1.10966 10.0892 0.5 10.8662 0.5 11.8584V14.2134C0.5 15.2055 1.12161 15.9825 2.06598 16.2216L4.15793 16.7117L4.26552 16.9986L3.12989 18.8276C2.60391 19.6524 2.7354 20.6327 3.44069 21.3499L5.12621 23.0235C5.81954 23.7288 6.81172 23.8722 7.64851 23.3462L9.47747 22.2106L9.80023 22.3301L10.2784 24.4221C10.5055 25.3784 11.2825 26 12.2867 26ZM12.5975 23.8005C12.3943 23.8005 12.2867 23.7168 12.2628 23.5375L11.5455 20.5968C10.7924 20.4175 10.0632 20.1067 9.47747 19.7361L6.8954 21.326C6.74 21.4216 6.59655 21.4097 6.4531 21.2662L5.19793 20.0111C5.05448 19.8796 5.05448 19.7361 5.15011 19.5807L6.74 16.9986C6.40529 16.4248 6.09448 15.7076 5.91517 14.9545L2.96253 14.2492C2.78322 14.2253 2.68759 14.1177 2.68759 13.9145V12.1453C2.68759 11.9301 2.77126 11.8465 2.96253 11.7986L5.90322 11.1053C6.08253 10.3044 6.4292 9.56324 6.72805 9.02531L5.13816 6.46714C5.04253 6.29979 5.04253 6.15634 5.17402 6.01289L6.44115 4.76967C6.5846 4.63818 6.71609 4.61427 6.8954 4.72186L9.45356 6.28783C9.99149 5.95312 10.7924 5.61841 11.5575 5.42714L12.2628 2.48645C12.2867 2.30714 12.3943 2.21151 12.5975 2.21151H14.4025C14.6057 2.21151 14.7014 2.29519 14.7372 2.48645L15.4545 5.4391C16.2315 5.63036 16.9368 5.95312 17.5345 6.28783L20.0926 4.72186C20.272 4.62622 20.4034 4.63818 20.5469 4.78163L21.814 6.02485C21.9575 6.15634 21.9575 6.29979 21.8499 6.46714L20.272 9.02531C20.5589 9.56324 20.9175 10.3044 21.0968 11.1053L24.0375 11.7986C24.2287 11.8465 24.3005 11.9301 24.3005 12.1453V13.9145C24.3005 14.1177 24.2168 14.2253 24.0375 14.2492L21.0848 14.9545C20.9055 15.7076 20.5828 16.4368 20.248 16.9986L21.8379 19.5688C21.9336 19.7361 21.9336 19.8676 21.7901 19.9991L20.5349 21.2662C20.3915 21.4097 20.248 21.4216 20.0926 21.326L17.5225 19.7361C16.9248 20.1067 16.2434 20.4055 15.4545 20.5968L14.7372 23.5375C14.7014 23.7168 14.6057 23.8005 14.4025 23.8005H12.5975ZM13.506 17.5485C15.9924 17.5485 18.0366 15.5044 18.0366 13.006C18.0366 10.5315 15.9924 8.48737 13.506 8.48737C11.0076 8.48737 8.95149 10.5315 8.95149 13.006C8.95149 15.5044 11.0076 17.5485 13.506 17.5485ZM13.506 15.4805C12.1432 15.4805 11.0315 14.3688 11.0315 13.006C11.0315 11.6671 12.1552 10.5554 13.506 10.5554C14.8329 10.5554 15.9446 11.6671 15.9446 13.006C15.9446 14.3568 14.8329 15.4805 13.506 15.4805Z" fill="white"/>
</svg>
