<svg width="17" height="16" viewBox="0 0 17 16" fill="none" xmlns="http://www.w3.org/2000/svg">
<path d="M7.99766 15.9961C12.3824 15.9961 16.0015 12.377 16.0015 8C16.0015 3.62301 12.3747 0.0038681 7.98993 0.0038681C3.61293 0.0038681 0.00152588 3.62301 0.00152588 8C0.00152588 12.377 3.62067 15.9961 7.99766 15.9961ZM3.34227 3.15128C4.10786 2.41663 5.05131 1.8521 6.09529 1.53504C5.54623 2.0841 5.08224 2.86515 4.73425 3.8086C4.19292 3.63847 3.7212 3.41421 3.34227 3.15128ZM9.90776 1.54278C10.9517 1.85984 11.8875 2.41663 12.653 3.15902C12.2741 3.42194 11.8101 3.63847 11.2688 3.81634C10.9208 2.86515 10.4568 2.09183 9.90776 1.54278ZM5.80916 4.07927C6.23449 2.94249 6.81448 2.1073 7.45634 1.8057V4.2494C6.86861 4.2262 6.31955 4.17207 5.80916 4.07927ZM8.53898 1.8057C9.18084 2.1073 9.76856 2.94249 10.1862 4.07927C9.6835 4.17207 9.12671 4.2262 8.53898 4.2494V1.8057ZM1.2775 7.45868C1.38577 6.15177 1.87296 4.94539 2.63082 3.95554C3.09481 4.30353 3.70573 4.60512 4.41719 4.82939C4.21612 5.62591 4.09239 6.51523 4.05373 7.45868H1.2775ZM11.9416 7.45868C11.9107 6.51523 11.7792 5.62591 11.5781 4.82939C12.2896 4.60512 12.9005 4.30353 13.3645 3.95554C14.1224 4.94539 14.6095 6.15177 14.7178 7.45868H11.9416ZM8.53898 7.45868V5.33205C9.22724 5.30885 9.89229 5.23151 10.5032 5.10778C10.6811 5.82697 10.8048 6.62349 10.8357 7.45868H8.53898ZM5.15957 7.45868C5.19824 6.62349 5.31424 5.82697 5.4921 5.10778C6.11076 5.23151 6.76808 5.30885 7.45634 5.33205V7.45868H5.15957ZM1.2775 8.54133H4.05373C4.08466 9.50024 4.21612 10.3973 4.42492 11.2093C3.7212 11.4335 3.11027 11.7274 2.64628 12.0677C1.88069 11.0701 1.38577 9.85597 1.2775 8.54133ZM5.15957 8.54133H7.45634V10.7066C6.77581 10.7298 6.11076 10.8072 5.49983 10.9309C5.31424 10.1962 5.19824 9.38424 5.15957 8.54133ZM8.53898 10.7066V8.54133H10.8435C10.8048 9.38424 10.6811 10.1962 10.4955 10.9309C9.88456 10.8072 9.22724 10.7298 8.53898 10.7066ZM11.5781 11.2093C11.7792 10.3973 11.9107 9.50024 11.9493 8.54133H14.7178C14.6095 9.85597 14.1146 11.0701 13.349 12.0677C12.885 11.7274 12.2819 11.4335 11.5781 11.2093ZM8.53898 11.7893C9.12671 11.8125 9.66803 11.8666 10.1784 11.9594C9.76083 13.073 9.18084 13.9004 8.53898 14.202V11.7893ZM5.82463 11.9594C6.32729 11.8666 6.87634 11.8125 7.45634 11.7893V14.202C6.82221 13.9004 6.24222 13.073 5.82463 11.9594ZM3.36547 12.8642C3.7444 12.609 4.20839 12.3925 4.74198 12.2223C5.08224 13.1503 5.54623 13.9159 6.07982 14.4572C5.05131 14.1479 4.12332 13.5911 3.36547 12.8642ZM11.2611 12.2223C11.7947 12.3925 12.2587 12.609 12.6376 12.8642C11.872 13.5911 10.944 14.1479 9.91549 14.4572C10.4568 13.9159 10.9131 13.1503 11.2611 12.2223Z" fill="white"/>
</svg>
