<svg width="21" height="20" viewBox="0 0 21 20" fill="none" xmlns="http://www.w3.org/2000/svg">
<path d="M0.5 7.1561C0.5 11.386 4.04856 15.5626 9.58407 19.1266C9.87924 19.3141 10.2458 19.5062 10.5 19.5062C10.7524 19.5062 11.1208 19.3141 11.424 19.1266C16.9514 15.5626 20.5 11.386 20.5 7.1561C20.5 3.51429 17.9856 0.98761 14.7477 0.98761C12.8663 0.98761 11.3903 1.85347 10.5 3.15789C9.62605 1.86159 8.13192 0.98761 6.2523 0.98761C3.0144 0.98761 0.5 3.51429 0.5 7.1561ZM2.49306 7.1472C2.49306 4.63496 4.14419 2.94859 6.35902 2.94859C8.14716 2.94859 9.15575 4.03205 9.77693 4.9775C10.0496 5.37707 10.2392 5.50557 10.5 5.50557C10.7608 5.50557 10.9289 5.36717 11.2195 4.9775C11.8901 4.04651 12.861 2.94859 14.641 2.94859C16.8558 2.94859 18.5052 4.63496 18.5052 7.1472C18.5052 10.6518 14.8533 14.522 10.6901 17.292C10.6018 17.3542 10.5396 17.3983 10.5 17.3983C10.4604 17.3983 10.3982 17.3542 10.318 17.292C6.14498 14.522 2.49306 10.6518 2.49306 7.1472Z" fill="white"/>
</svg>
