<svg width="12" height="17" viewBox="0 0 12 17" fill="none" xmlns="http://www.w3.org/2000/svg">
<path d="M1.43262 16.4268H10.0195C10.9688 16.4268 11.5225 15.9082 11.5225 14.9502V14.6865C11.5312 12.2344 8.87695 10.2393 7.80469 9.21973C7.48828 8.90332 7.30371 8.62207 7.30371 8.2002C7.30371 7.77832 7.47949 7.51465 7.80469 7.18945C8.86816 6.15234 11.5225 4.25391 11.5225 1.72266V1.47656C11.5225 0.518555 10.9688 0 10.0195 0H1.43262C0.509766 0 0 0.518555 0 1.41504V1.72266C0 4.25391 2.6543 6.15234 3.70898 7.18945C4.04297 7.51465 4.21875 7.77832 4.21875 8.2002C4.21875 8.62207 4.03418 8.90332 3.70898 9.21973C2.64551 10.2393 0 12.2344 0 14.6865V15.0117C0 15.9082 0.509766 16.4268 1.43262 16.4268ZM5.75684 10.9512C5.95898 10.9512 6.11719 11.0654 6.31055 11.25L9.45703 14.3174C9.80859 14.6689 9.6416 15.1348 9.16699 15.1348H2.35547C1.88086 15.1348 1.70508 14.6602 2.05664 14.3174L5.2207 11.2412C5.40527 11.0742 5.56348 10.9512 5.75684 10.9512Z" fill="white" fill-opacity="0.45"/>
</svg>
