<svg width="13" height="12" viewBox="0 0 13 12" fill="none" xmlns="http://www.w3.org/2000/svg">
<path fill-rule="evenodd" clip-rule="evenodd" d="M1.50305 0C0.674625 0 0.00305176 0.671573 0.00305176 1.5V10.5C0.00305176 11.3284 0.674625 12 1.50305 12H10.5031C11.3315 12 12.0031 11.3284 12.0031 10.5V1.5C12.0031 0.671573 11.3315 0 10.5031 0H1.50305ZM2.25305 1.5C1.83884 1.5 1.50305 1.83579 1.50305 2.25V9.75C1.50305 10.1642 1.83884 10.5 2.25305 10.5H9.75305C10.1673 10.5 10.5031 10.1642 10.5031 9.75V2.25C10.5031 1.83579 10.1673 1.5 9.75305 1.5H2.25305Z" fill="white"/>
</svg>
