<svg width="21" height="23" viewBox="0 0 21 23" fill="none" xmlns="http://www.w3.org/2000/svg">
<path d="M3.18962 22.0249H17.8104C19.8274 22.0249 20.8017 21.3904 20.8017 20.0149C20.8017 16.8075 16.7899 12.501 10.5038 12.501C4.21009 12.501 0.198303 16.8075 0.198303 20.0149C0.198303 21.3904 1.1726 22.0249 3.18962 22.0249ZM2.80759 20.0001C2.53243 20.0001 2.4204 19.916 2.4204 19.6973C2.4204 17.902 5.32313 14.5258 10.5038 14.5258C15.6748 14.5258 18.5796 17.902 18.5796 19.6973C18.5796 19.916 18.4772 20.0001 18.1999 20.0001H2.80759ZM10.5038 11.1344C13.3371 11.1344 15.6317 8.631 15.6317 5.56537C15.6317 2.54006 13.3383 0.138184 10.5038 0.138184C7.69056 0.138184 5.37377 2.5785 5.37799 5.5867C5.38971 8.64061 7.67252 11.1344 10.5038 11.1344ZM10.5038 9.1096C8.88353 9.1096 7.50306 7.58288 7.50095 5.58248C7.49884 3.63834 8.87064 2.16294 10.5038 2.16294C12.1507 2.16294 13.5087 3.61912 13.5087 5.56537C13.5087 7.56366 12.1378 9.1096 10.5038 9.1096Z" fill="white"/>
</svg>
