<svg width="12" height="12" viewBox="0 0 12 12" fill="none" xmlns="http://www.w3.org/2000/svg">
<path d="M0.749736 6.74821H4.75332V10.7518C4.75332 11.1587 5.08804 11.5 5.50153 11.5C5.91501 11.5 6.24974 11.1587 6.24974 10.7518V6.74821H10.2533C10.6602 6.74821 11.0015 6.41348 11.0015 6C11.0015 5.58652 10.6602 5.25179 10.2533 5.25179H6.24974V1.24821C6.24974 0.841289 5.91501 0.5 5.50153 0.5C5.08804 0.5 4.75332 0.841289 4.75332 1.24821V5.25179H0.749736C0.342815 5.25179 0.00152588 5.58652 0.00152588 6C0.00152588 6.41348 0.342815 6.74821 0.749736 6.74821Z" fill="white"/>
</svg>
