<svg width="12" height="16" viewBox="0 0 12 16" fill="none" xmlns="http://www.w3.org/2000/svg">
<path d="M5.80537 7.63759C6 7.63759 6.15436 7.57718 6.27517 7.44967L9.02685 4.67785C9.1745 4.5302 9.24161 4.36913 9.24161 4.18121C9.24161 4 9.16779 3.8255 9.02685 3.69128L6.27517 0.892619C6.15436 0.758391 6 0.691277 5.80537 0.691277C5.44295 0.691277 5.15436 0.99329 5.15436 1.36242C5.15436 1.54363 5.22148 1.69128 5.33557 1.81879L6.9396 3.38926C6.62416 3.34228 6.30201 3.31544 5.97987 3.31544C2.65772 3.31544 0 5.97316 0 9.30201C0 12.6309 2.67785 15.3087 6 15.3087C9.32886 15.3087 12 12.6309 12 9.30201C12 8.89933 11.7181 8.61074 11.3154 8.61074C10.9262 8.61074 10.6644 8.89933 10.6644 9.30201C10.6644 11.8926 8.5906 13.9732 6 13.9732C3.41611 13.9732 1.33557 11.8926 1.33557 9.30201C1.33557 6.69128 3.39597 4.62416 5.97987 4.62416C6.41611 4.62416 6.81879 4.65772 7.1745 4.71812L5.34228 6.5302C5.22148 6.65101 5.15436 6.79866 5.15436 6.97987C5.15436 7.34899 5.44295 7.63759 5.80537 7.63759Z" fill="white"/>
</svg>
