<svg width="19" height="21" viewBox="0 0 19 21" fill="none" xmlns="http://www.w3.org/2000/svg">
<path d="M0 8.68089C0 13.0036 3.51275 16.5146 7.83369 16.5146C9.44063 16.5146 10.9153 16.0207 12.1448 15.1871L16.566 19.6162C16.8428 19.893 17.2094 20.0248 17.5953 20.0248C18.4143 20.0248 19 19.4059 19 18.5965C19 18.2158 18.8602 17.8606 18.5958 17.5961L14.2086 13.1836C15.1271 11.92 15.6674 10.3665 15.6674 8.68089C15.6674 4.35996 12.1546 0.848938 7.83369 0.848938C3.51275 0.848938 0 4.35996 0 8.68089ZM2.04054 8.68089C2.04054 5.48455 4.63735 2.88948 7.83369 2.88948C11.0301 2.88948 13.6251 5.48455 13.6251 8.68089C13.6251 11.879 11.0301 14.474 7.83369 14.474C4.63735 14.474 2.04054 11.879 2.04054 8.68089Z" fill="white"/>
</svg>
