<svg width="20" height="19" viewBox="0 0 20 19" fill="none" xmlns="http://www.w3.org/2000/svg">
<path d="M10 18.7334C14.9658 18.7334 19.0791 14.6289 19.0791 9.6543C19.0791 4.68848 14.9658 0.575195 9.99121 0.575195C5.02539 0.575195 0.920898 4.68848 0.920898 9.6543C0.920898 14.6289 5.03418 18.7334 10 18.7334ZM10 17.3271C5.80762 17.3271 2.32715 13.8467 2.32715 9.6543C2.32715 5.6377 5.50879 2.28027 9.46387 1.99902C9.25293 2.20117 9.18262 2.43848 9.15625 2.77246C8.88379 2.71973 8.61133 2.69336 8.3916 2.69336C7.75879 2.69336 7.23145 3.0625 6.15918 3.71289C5.10449 4.35449 5.44727 5.875 6.55469 5.99805C5.00781 6.63086 4.07617 8.42383 4.07617 9.11816C4.07617 10.1025 5.6582 11.9922 6.76562 11.9922C7.33691 11.9922 7.96094 11.8779 8.43555 11.8164C8.64648 11.7812 8.78711 11.834 8.85742 12.001C8.96289 12.2383 9.02441 12.4844 9.02441 12.8975C9.02441 13.7061 8.6377 16.5625 10.5977 16.5625C11.9863 16.5625 13.0762 14.4883 13.8232 13.1348C14.4648 11.957 15.2471 10.8848 15.2471 10.0498C15.2471 9.72461 15.1855 9.43457 15.0449 9.1709C15.6514 9.1709 16.5303 8.70508 17.4707 7.93164C17.6025 8.48535 17.6729 9.06543 17.6729 9.6543C17.6729 13.8467 14.1924 17.3271 10 17.3271ZM10.0527 12.8359C10.0527 11.6934 9.5957 10.7529 8.54102 10.7529C8.29492 10.7529 7.94336 10.8057 7.65332 10.8672C7.32812 10.9023 7.03809 10.9639 6.76562 10.9639C6.2207 10.9639 5.10449 9.53125 5.10449 9.11816C5.10449 8.4502 6.17676 6.79785 7.67969 6.79785C8.37402 6.79785 8.93652 6.91211 9.49902 7.01758C9.96484 7.10547 10.4395 7.19336 10.8965 7.19336C11.7754 7.19336 12.6895 6.70117 12.6895 6.0332C12.6895 5.06641 10.2109 4.31055 8.7959 4.31055C8.41797 4.31055 7.89062 4.48633 6.88867 4.95215C6.625 5.0752 6.42285 4.74121 6.68652 4.5918C6.80078 4.52148 6.91504 4.45117 7.05566 4.36328C7.60059 4.02051 8.11035 3.71289 8.34766 3.71289C8.50586 3.71289 8.62012 3.72168 8.84863 3.76562C9.05078 3.80078 9.22656 3.82715 9.33203 3.82715C9.83301 3.82715 10.167 3.51074 10.167 3.00098C10.167 2.68457 10.2637 2.55273 10.5977 2.39453L11.2393 2.08691C13.9639 2.54395 16.2314 4.46875 17.1895 7C16.6445 7.38672 15.3174 8.15137 15.0273 8.15137C14.8691 8.15137 14.6934 7.99316 14.2627 7.66797C13.1904 6.85938 12.2061 8.2041 13.252 8.88965C14.0166 9.4082 14.2275 9.61035 14.2275 10.0498C14.2275 10.3223 14.0693 10.665 13.4805 11.667C13.3047 11.957 13.1113 12.291 12.918 12.6426C11.5557 15.1299 11.1865 15.5342 10.6855 15.5342C9.8418 15.5342 10.0527 14.4531 10.0527 12.8359ZM13.9727 5.13672C14.2188 5.13672 14.4209 4.96973 14.4209 4.64453C14.4209 4.30176 13.7881 3.80078 13.2783 3.80078C12.9355 3.80078 12.5225 3.90625 12.5225 4.24902C12.5225 4.60938 13.4717 5.13672 13.9727 5.13672ZM7.67969 5.76953C7.64453 5.76953 7.60059 5.77832 7.55664 5.77832C8.17188 5.4707 8.58496 5.33887 8.7959 5.33887C9.38477 5.33887 11.6699 5.90137 11.6699 6.02441C11.6699 6.12988 11.3711 6.21777 10.9756 6.21777C10.334 6.21777 9.1123 5.76953 7.67969 5.76953Z" fill="white"/>
</svg>
